<svg width="120" height="150" viewBox="0 0 120 150" fill="none" xmlns="http://www.w3.org/2000/svg">
<path d="M12 138.664V120H22.1933V121.601H13.6294V128.538H20.5639V130.139H13.6294V137.063H22.1933V138.664H12Z" fill="url(#paint0_linear)"/>
<path d="M28.8498 138.664H28.0793L23.4943 125.336H25.0479L28.4204 135.436L28.4709 136.126L28.5214 135.436L31.8813 125.336H33.4349L28.8498 138.664Z" fill="url(#paint1_linear)"/>
<path d="M43.8934 135.007C43.8934 135.544 43.7923 136.052 43.5903 136.529C43.3966 137.007 43.1271 137.423 42.7819 137.779C42.4366 138.134 42.0324 138.416 41.5693 138.625C41.1061 138.824 40.6135 138.924 40.0914 138.924H39.0557C38.5336 138.924 38.041 138.824 37.5779 138.625C37.1147 138.416 36.7105 138.134 36.3653 137.779C36.02 137.423 35.7464 137.007 35.5443 136.529C35.3506 136.052 35.2538 135.544 35.2538 135.007V128.993C35.2538 128.456 35.3506 127.948 35.5443 127.471C35.7464 126.993 36.02 126.577 36.3653 126.221C36.7105 125.866 37.1147 125.588 37.5779 125.388C38.041 125.18 38.5336 125.076 39.0557 125.076H40.0914C40.6135 125.076 41.1061 125.18 41.5693 125.388C42.0324 125.588 42.4366 125.866 42.7819 126.221C43.1271 126.577 43.3966 126.993 43.5903 127.471C43.7923 127.948 43.8934 128.456 43.8934 128.993V132.13H36.8074V135.098C36.8074 135.419 36.8663 135.722 36.9842 136.009C37.1021 136.286 37.2621 136.529 37.4642 136.738C37.6663 136.946 37.9021 137.111 38.1715 137.232C38.4494 137.354 38.7441 137.414 39.0557 137.414H40.0914C40.403 137.414 40.6935 137.354 40.963 137.232C41.2409 137.111 41.4809 136.946 41.683 136.738C41.8851 136.529 42.0451 136.286 42.1629 136.009C42.2808 135.722 42.3398 135.419 42.3398 135.098V134.213L43.8934 134.473V135.007ZM42.3398 128.902C42.3398 128.581 42.2808 128.282 42.1629 128.004C42.0451 127.718 41.8851 127.471 41.683 127.262C41.4809 127.054 41.2409 126.889 40.963 126.768C40.6935 126.646 40.403 126.586 40.0914 126.586H39.0557C38.7441 126.586 38.4494 126.646 38.1715 126.768C37.9021 126.889 37.6663 127.054 37.4642 127.262C37.2621 127.471 37.1021 127.718 36.9842 128.004C36.8663 128.282 36.8074 128.581 36.8074 128.902V130.881H42.3398V128.902Z" fill="url(#paint2_linear)"/>
<path d="M54.0867 138.664V128.902C54.0867 128.581 54.0277 128.282 53.9098 128.004C53.7919 127.718 53.6319 127.471 53.4298 127.262C53.2277 127.054 52.9877 126.889 52.7099 126.768C52.4404 126.646 52.1499 126.586 51.8383 126.586H50.8026C50.491 126.586 50.1963 126.646 49.9184 126.768C49.6489 126.889 49.4132 127.054 49.2111 127.262C49.009 127.471 48.849 127.718 48.7311 128.004C48.6132 128.282 48.5543 128.581 48.5543 128.902V138.664H47.0006V125.336H47.5185L48.3648 126.69C48.7185 126.195 49.1605 125.805 49.691 125.518C50.23 125.223 50.8152 125.076 51.4468 125.076H51.8383C52.3604 125.076 52.853 125.18 53.3162 125.388C53.7793 125.588 54.1835 125.866 54.5287 126.221C54.874 126.577 55.1434 126.993 55.3371 127.471C55.5392 127.948 55.6403 128.456 55.6403 128.993V138.664H54.0867Z" fill="url(#paint3_linear)"/>
<path d="M63.4589 138.664C62.9873 138.664 62.541 138.573 62.12 138.39C61.7074 138.208 61.3453 137.957 61.0337 137.636C60.7306 137.315 60.4864 136.941 60.3011 136.516C60.1243 136.091 60.0359 135.636 60.0359 135.15V126.859H57.7118V125.336H60.0359V122.134L61.5895 121.874V125.336H64.8736V126.859H61.5895V135.228C61.5895 135.497 61.6358 135.748 61.7284 135.983C61.8295 136.208 61.9642 136.408 62.1326 136.581C62.301 136.755 62.4989 136.894 62.7263 136.998C62.9536 137.093 63.1978 137.141 63.4589 137.141H64.8736V138.664H63.4589Z" fill="url(#paint4_linear)"/>
<path d="M76.6331 135.28C76.6331 135.818 76.5278 136.312 76.3173 136.764C76.1068 137.206 75.8205 137.588 75.4584 137.909C75.0963 138.23 74.6753 138.482 74.1953 138.664C73.7237 138.837 73.2269 138.924 72.7048 138.924H71.6691C71.147 138.924 70.646 138.824 70.166 138.625C69.6944 138.416 69.2776 138.134 68.9155 137.779C68.5618 137.423 68.2755 137.007 68.0566 136.529C67.8461 136.052 67.7408 135.544 67.7408 135.007V134.473L69.2944 134.213V135.098C69.2944 135.419 69.3576 135.722 69.4839 136.009C69.6186 136.286 69.7955 136.529 70.0144 136.738C70.2333 136.946 70.486 137.111 70.7723 137.232C71.0586 137.354 71.3575 137.414 71.6691 137.414H72.7048C73.0164 137.414 73.3153 137.367 73.6016 137.271C73.8879 137.176 74.1405 137.041 74.3595 136.868C74.5868 136.685 74.7637 136.469 74.89 136.217C75.0247 135.965 75.0921 135.679 75.0921 135.358C75.0921 134.881 74.991 134.49 74.7889 134.187C74.5868 133.883 74.3174 133.631 73.9806 133.432C73.6521 133.223 73.2732 133.054 72.8438 132.924C72.4227 132.785 71.9891 132.651 71.5428 132.521C71.0965 132.382 70.6586 132.226 70.2291 132.052C69.8081 131.879 69.4292 131.653 69.0923 131.375C68.7639 131.089 68.4987 130.733 68.2966 130.308C68.0945 129.883 67.9934 129.354 67.9934 128.72C67.9934 128.182 68.0945 127.692 68.2966 127.249C68.4987 126.798 68.7724 126.412 69.1176 126.091C69.4628 125.77 69.8628 125.523 70.3175 125.349C70.7807 125.167 71.2733 125.076 71.7954 125.076H72.7048C73.2269 125.076 73.7195 125.18 74.1826 125.388C74.6458 125.588 75.05 125.866 75.3952 126.221C75.7405 126.577 76.0099 126.993 76.2036 127.471C76.4057 127.948 76.5068 128.456 76.5068 128.993V129.046L74.9531 129.306V128.902C74.9531 128.581 74.8942 128.282 74.7763 128.004C74.6584 127.718 74.4984 127.471 74.2963 127.262C74.0942 127.054 73.8542 126.889 73.5764 126.768C73.3069 126.646 73.0164 126.586 72.7048 126.586H71.7954C71.4838 126.586 71.1891 126.633 70.9112 126.729C70.6417 126.824 70.406 126.963 70.2039 127.145C70.0018 127.319 69.8418 127.531 69.7239 127.783C69.606 128.035 69.5471 128.321 69.5471 128.642C69.5471 129.102 69.6481 129.479 69.8502 129.774C70.0523 130.061 70.3175 130.304 70.646 130.503C70.9828 130.703 71.3617 130.872 71.7827 131.011C72.2122 131.141 72.6459 131.28 73.0837 131.427C73.53 131.566 73.9637 131.727 74.3847 131.909C74.8142 132.091 75.1931 132.325 75.5215 132.612C75.8584 132.898 76.1278 133.258 76.3299 133.692C76.532 134.117 76.6331 134.646 76.6331 135.28Z" fill="url(#paint5_linear)"/>
<path d="M86.9274 134.317H81.1929L80.0056 138.664H78.313L83.618 120H84.477L89.8073 138.664H88.1273L86.9274 134.317ZM81.635 132.716H86.4979L84.1106 124.113L84.0601 123.423L84.0096 124.113L81.635 132.716Z" fill="url(#paint6_linear)"/>
<path d="M100.253 135.007C100.253 135.544 100.152 136.052 99.95 136.529C99.7563 137.007 99.4869 137.423 99.1416 137.779C98.7964 138.134 98.3922 138.416 97.929 138.625C97.4659 138.824 96.9733 138.924 96.4512 138.924H96.0596C95.4786 138.924 94.9397 138.803 94.4428 138.56C93.946 138.317 93.5208 137.978 93.1671 137.544V144H91.6135V125.336H92.1314L92.9776 126.69C93.3313 126.195 93.7734 125.805 94.3039 125.518C94.8428 125.223 95.4281 125.076 96.0596 125.076H96.4512C96.9733 125.076 97.4659 125.18 97.929 125.388C98.3922 125.588 98.7964 125.866 99.1416 126.221C99.4869 126.577 99.7563 126.993 99.95 127.471C100.152 127.948 100.253 128.456 100.253 128.993V135.007ZM98.6995 128.902C98.6995 128.581 98.6406 128.282 98.5227 128.004C98.4048 127.718 98.2448 127.471 98.0427 127.262C97.8406 127.054 97.6006 126.889 97.3227 126.768C97.0533 126.646 96.7628 126.586 96.4512 126.586H95.4154C95.1039 126.586 94.8091 126.646 94.5313 126.768C94.2618 126.889 94.026 127.054 93.8239 127.262C93.6218 127.471 93.4618 127.718 93.3439 128.004C93.2261 128.282 93.1671 128.581 93.1671 128.902V135.098C93.1671 135.419 93.2261 135.722 93.3439 136.009C93.4618 136.286 93.6218 136.529 93.8239 136.738C94.026 136.946 94.2618 137.111 94.5313 137.232C94.8091 137.354 95.1039 137.414 95.4154 137.414H96.4512C96.7628 137.414 97.0533 137.354 97.3227 137.232C97.6006 137.111 97.8406 136.946 98.0427 136.738C98.2448 136.529 98.4048 136.286 98.5227 136.009C98.6406 135.722 98.6995 135.419 98.6995 135.098V128.902Z" fill="url(#paint7_linear)"/>
<path d="M112 135.007C112 135.544 111.899 136.052 111.697 136.529C111.503 137.007 111.234 137.423 110.888 137.779C110.543 138.134 110.139 138.416 109.676 138.625C109.213 138.824 108.72 138.924 108.198 138.924H107.806C107.225 138.924 106.687 138.803 106.19 138.56C105.693 138.317 105.268 137.978 104.914 137.544V144H103.36V125.336H103.878L104.725 126.69C105.078 126.195 105.52 125.805 106.051 125.518C106.59 125.223 107.175 125.076 107.806 125.076H108.198C108.72 125.076 109.213 125.18 109.676 125.388C110.139 125.588 110.543 125.866 110.888 126.221C111.234 126.577 111.503 126.993 111.697 127.471C111.899 127.948 112 128.456 112 128.993V135.007ZM110.446 128.902C110.446 128.581 110.387 128.282 110.27 128.004C110.152 127.718 109.992 127.471 109.79 127.262C109.587 127.054 109.347 126.889 109.07 126.768C108.8 126.646 108.51 126.586 108.198 126.586H107.162C106.851 126.586 106.556 126.646 106.278 126.768C106.009 126.889 105.773 127.054 105.571 127.262C105.369 127.471 105.209 127.718 105.091 128.004C104.973 128.282 104.914 128.581 104.914 128.902V135.098C104.914 135.419 104.973 135.722 105.091 136.009C105.209 136.286 105.369 136.529 105.571 136.738C105.773 136.946 106.009 137.111 106.278 137.232C106.556 137.354 106.851 137.414 107.162 137.414H108.198C108.51 137.414 108.8 137.354 109.07 137.232C109.347 137.111 109.587 136.946 109.79 136.738C109.992 136.529 110.152 136.286 110.27 136.009C110.387 135.722 110.446 135.419 110.446 135.098V128.902Z" fill="url(#paint8_linear)"/>
<path fill-rule="evenodd" clip-rule="evenodd" d="M79.5032 56.5537C80.8542 57.9362 80.8287 60.1521 79.4463 61.5032L57.4463 83.0032C56.0966 84.3221 53.9443 84.3336 52.5806 83.0291L41.5806 72.5064C40.1838 71.1702 40.1347 68.9547 41.4709 67.5579C42.8071 66.1611 45.0226 66.1119 46.4194 67.4481L54.974 75.6316L74.5537 56.4968C75.9362 55.1458 78.1521 55.1713 79.5032 56.5537Z" fill="url(#paint9_linear)"/>
<path fill-rule="evenodd" clip-rule="evenodd" d="M70 23H52V35C52 39.9706 47.9706 44 43 44C38.0294 44 34 39.9706 34 35V23H29C22.9249 23 18 27.9249 18 34V87C18 93.0751 22.9249 98 29 98H92C98.0751 98 103 93.0751 103 87V34C103 27.9249 98.0751 23 92 23H88V35C88 39.9706 83.9706 44 79 44C74.0294 44 70 39.9706 70 35V23ZM100 45H21V86C21 90.9706 25.0294 95 30 95H91C95.9706 95 100 90.9706 100 86V45Z" fill="url(#paint10_linear)"/>
<path d="M37 17C37 13.6863 39.6863 11 43 11C46.3137 11 49 13.6863 49 17V35C49 38.3137 46.3137 41 43 41C39.6863 41 37 38.3137 37 35V17Z" fill="url(#paint11_linear)"/>
<path d="M73 17C73 13.6863 75.6863 11 79 11C82.3137 11 85 13.6863 85 17V35C85 38.3137 82.3137 41 79 41C75.6863 41 73 38.3137 73 35V17Z" fill="url(#paint12_linear)"/>
<path d="M104 4C104 1.79086 105.791 0 108 0C110.209 0 112 1.79086 112 4V21C112 23.2091 110.209 25 108 25C105.791 25 104 23.2091 104 21V4Z" fill="url(#paint13_linear)"/>
<path d="M99 17C96.7909 17 95 15.2091 95 13C95 10.7909 96.7909 9 99 9H116C118.209 9 120 10.7909 120 13C120 15.2091 118.209 17 116 17H99Z" fill="url(#paint14_linear)"/>
<defs>
<linearGradient id="paint0_linear" x1="62" y1="120" x2="62" y2="144" gradientUnits="userSpaceOnUse">
<stop stop-color="#0090E1"/>
<stop offset="1" stop-color="#0090E1"/>
</linearGradient>
<linearGradient id="paint1_linear" x1="62" y1="120" x2="62" y2="144" gradientUnits="userSpaceOnUse">
<stop stop-color="#0090E1"/>
<stop offset="1" stop-color="#0090E1"/>
</linearGradient>
<linearGradient id="paint2_linear" x1="62" y1="120" x2="62" y2="144" gradientUnits="userSpaceOnUse">
<stop stop-color="#0090E1"/>
<stop offset="1" stop-color="#0090E1"/>
</linearGradient>
<linearGradient id="paint3_linear" x1="62" y1="120" x2="62" y2="144" gradientUnits="userSpaceOnUse">
<stop stop-color="#0090E1"/>
<stop offset="1" stop-color="#0090E1"/>
</linearGradient>
<linearGradient id="paint4_linear" x1="62" y1="120" x2="62" y2="144" gradientUnits="userSpaceOnUse">
<stop stop-color="#0090E1"/>
<stop offset="1" stop-color="#0090E1"/>
</linearGradient>
<linearGradient id="paint5_linear" x1="62" y1="120" x2="62" y2="144" gradientUnits="userSpaceOnUse">
<stop stop-color="#0090E1"/>
<stop offset="1" stop-color="#0090E1"/>
</linearGradient>
<linearGradient id="paint6_linear" x1="62" y1="120" x2="62" y2="144" gradientUnits="userSpaceOnUse">
<stop stop-color="#0090E1"/>
<stop offset="1" stop-color="#0090E1"/>
</linearGradient>
<linearGradient id="paint7_linear" x1="62" y1="120" x2="62" y2="144" gradientUnits="userSpaceOnUse">
<stop stop-color="#0090E1"/>
<stop offset="1" stop-color="#0090E1"/>
</linearGradient>
<linearGradient id="paint8_linear" x1="62" y1="120" x2="62" y2="144" gradientUnits="userSpaceOnUse">
<stop stop-color="#0090E1"/>
<stop offset="1" stop-color="#0090E1"/>
</linearGradient>
<linearGradient id="paint9_linear" x1="69" y1="0" x2="69" y2="98" gradientUnits="userSpaceOnUse">
<stop stop-color="#0090E1"/>
<stop offset="1" stop-color="#0090E1"/>
</linearGradient>
<linearGradient id="paint10_linear" x1="69" y1="0" x2="69" y2="98" gradientUnits="userSpaceOnUse">
<stop stop-color="#0090E1"/>
<stop offset="1" stop-color="#0090E1"/>
</linearGradient>
<linearGradient id="paint11_linear" x1="69" y1="0" x2="69" y2="98" gradientUnits="userSpaceOnUse">
<stop stop-color="#0090E1"/>
<stop offset="1" stop-color="#0090E1"/>
</linearGradient>
<linearGradient id="paint12_linear" x1="69" y1="0" x2="69" y2="98" gradientUnits="userSpaceOnUse">
<stop stop-color="#0090E1"/>
<stop offset="1" stop-color="#0090E1"/>
</linearGradient>
<linearGradient id="paint13_linear" x1="69" y1="0" x2="69" y2="98" gradientUnits="userSpaceOnUse">
<stop stop-color="#0090E1"/>
<stop offset="1" stop-color="#0090E1"/>
</linearGradient>
<linearGradient id="paint14_linear" x1="69" y1="0" x2="69" y2="98" gradientUnits="userSpaceOnUse">
<stop stop-color="#0090E1"/>
<stop offset="1" stop-color="#0090E1"/>
</linearGradient>
</defs>
</svg>
