<svg width="171" height="40" viewBox="0 0 171 40" fill="none" xmlns="http://www.w3.org/2000/svg">
<g style="mix-blend-mode:lighten">
<path fill-rule="evenodd" clip-rule="evenodd" d="M25.6662 19.5618C26.0765 19.9807 26.0688 20.6522 25.6489 21.0616L18.9669 27.5767C18.5569 27.9764 17.9032 27.9799 17.489 27.5846L14.148 24.3959C13.7237 23.991 13.7088 23.3196 14.1146 22.8963C14.5205 22.4731 15.1934 22.4582 15.6177 22.8631L18.216 25.3429L24.1629 19.5445C24.5828 19.1351 25.2558 19.1428 25.6662 19.5618Z" fill="white"/>
<path fill-rule="evenodd" clip-rule="evenodd" d="M22.7798 9.39395H17.3127V13.0303C17.3127 14.5365 16.0888 15.7576 14.5791 15.7576C13.0694 15.7576 11.8455 14.5365 11.8455 13.0303V9.39395H10.3269C8.48167 9.39395 6.98584 10.8863 6.98584 12.7273V28.7879C6.98584 30.6288 8.48167 32.1212 10.3269 32.1212H29.4619C31.3071 32.1212 32.8029 30.6288 32.8029 28.7879V12.7273C32.8029 10.8863 31.3071 9.39395 29.4619 9.39395H28.2469V13.0303C28.2469 14.5365 27.0231 15.7576 25.5134 15.7576C24.0037 15.7576 22.7798 14.5365 22.7798 13.0303V9.39395ZM31.8917 16.0606H7.89703V28.4849C7.89703 29.9911 9.12089 31.2121 10.6306 31.2121H29.1581C30.6678 31.2121 31.8917 29.9911 31.8917 28.4849V16.0606Z" fill="white"/>
<path d="M12.7567 7.57577C12.7567 6.57162 13.5726 5.75759 14.5791 5.75759C15.5856 5.75759 16.4015 6.57162 16.4015 7.57577V13.0303C16.4015 14.0345 15.5856 14.8485 14.5791 14.8485C13.5726 14.8485 12.7567 14.0345 12.7567 13.0303V7.57577Z" fill="white"/>
<path d="M23.691 7.57577C23.691 6.57162 24.5069 5.75759 25.5134 5.75759C26.5198 5.75759 27.3357 6.57162 27.3357 7.57577V13.0303C27.3357 14.0345 26.5198 14.8485 25.5134 14.8485C24.5069 14.8485 23.691 14.0345 23.691 13.0303V7.57577Z" fill="white"/>
<path d="M33.1066 3.63638C33.1066 2.96694 33.6506 2.42426 34.3215 2.42426C34.9925 2.42426 35.5365 2.96694 35.5365 3.63638V8.78789C35.5365 9.45733 34.9925 10 34.3215 10C33.6506 10 33.1066 9.45733 33.1066 8.78789V3.63638Z" fill="white"/>
<path d="M31.588 7.57577C30.917 7.57577 30.373 7.03309 30.373 6.36365C30.373 5.69421 30.917 5.15153 31.588 5.15153H36.7514C37.4224 5.15153 37.9663 5.69421 37.9663 6.36365C37.9663 7.03309 37.4224 7.57577 36.7514 7.57577H31.588Z" fill="white"/>
<path d="M44.4567 30.6061V8.96367H56.6644V10.82H46.4082V18.8642H54.713V20.7206H46.4082V28.7497H56.6644V30.6061H44.4567Z" fill="white"/>
<path d="M64.6364 30.6061H63.7136L58.2225 15.1515H60.0831L64.1221 26.8632L64.1826 27.6631L64.2431 26.8632L68.2669 15.1515H70.1276L64.6364 30.6061Z" fill="white"/>
<path d="M82.6529 26.3651C82.6529 26.9889 82.5319 27.5775 82.2898 28.1309C82.0579 28.6843 81.7352 29.1673 81.3217 29.5798C80.9082 29.9923 80.4241 30.3193 79.8695 30.5608C79.3148 30.7922 78.7248 30.9079 78.0996 30.9079H76.8592C76.2339 30.9079 75.6439 30.7922 75.0893 30.5608C74.5346 30.3193 74.0505 29.9923 73.6371 29.5798C73.2236 29.1673 72.8958 28.6843 72.6538 28.1309C72.4219 27.5775 72.3059 26.9889 72.3059 26.3651V19.3925C72.3059 18.7687 72.4219 18.1801 72.6538 17.6267C72.8958 17.0733 73.2236 16.5903 73.6371 16.1778C74.0505 15.7653 74.5346 15.4433 75.0893 15.2119C75.6439 14.9704 76.2339 14.8497 76.8592 14.8497H78.0996C78.7248 14.8497 79.3148 14.9704 79.8695 15.2119C80.4241 15.4433 80.9082 15.7653 81.3217 16.1778C81.7352 16.5903 82.0579 17.0733 82.2898 17.6267C82.5319 18.1801 82.6529 18.7687 82.6529 19.3925V23.0297H74.1665V26.4708C74.1665 26.8431 74.2371 27.1952 74.3783 27.5272C74.5195 27.8492 74.7111 28.1309 74.9531 28.3724C75.1952 28.6139 75.4775 28.8051 75.8003 28.9459C76.1331 29.0868 76.486 29.1572 76.8592 29.1572H78.0996C78.4727 29.1572 78.8206 29.0868 79.1434 28.9459C79.4762 28.8051 79.7636 28.6139 80.0056 28.3724C80.2476 28.1309 80.4393 27.8492 80.5804 27.5272C80.7216 27.1952 80.7922 26.8431 80.7922 26.4708V25.4445L82.6529 25.7463V26.3651ZM80.7922 19.2868C80.7922 18.9145 80.7216 18.5674 80.5804 18.2455C80.4393 17.9134 80.2476 17.6267 80.0056 17.3852C79.7636 17.1437 79.4762 16.9525 79.1434 16.8117C78.8206 16.6708 78.4727 16.6004 78.0996 16.6004H76.8592C76.486 16.6004 76.1331 16.6708 75.8003 16.8117C75.4775 16.9525 75.1952 17.1437 74.9531 17.3852C74.7111 17.6267 74.5195 17.9134 74.3783 18.2455C74.2371 18.5674 74.1665 18.9145 74.1665 19.2868V21.5809H80.7922V19.2868Z" fill="white"/>
<path d="M94.8605 30.6061V19.2868C94.8605 18.9145 94.7899 18.5674 94.6487 18.2455C94.5075 17.9134 94.3159 17.6267 94.0739 17.3852C93.8319 17.1437 93.5444 16.9525 93.2116 16.8117C92.8889 16.6708 92.541 16.6004 92.1679 16.6004H90.9274C90.5543 16.6004 90.2013 16.6708 89.8685 16.8117C89.5458 16.9525 89.2634 17.1437 89.0214 17.3852C88.7794 17.6267 88.5878 17.9134 88.4466 18.2455C88.3054 18.5674 88.2348 18.9145 88.2348 19.2868V30.6061H86.3742V15.1515H86.9944L88.0079 16.7211C88.4314 16.1476 88.9609 15.6949 89.5962 15.3628C90.2417 15.0207 90.9426 14.8497 91.6989 14.8497H92.1679C92.7931 14.8497 93.3831 14.9704 93.9377 15.2119C94.4924 15.4433 94.9765 15.7653 95.39 16.1778C95.8034 16.5903 96.1261 17.0733 96.3581 17.6267C96.6001 18.1801 96.7211 18.7687 96.7211 19.3925V30.6061H94.8605Z" fill="white"/>
<path d="M106.085 30.6061C105.52 30.6061 104.986 30.5004 104.481 30.2891C103.987 30.0778 103.554 29.7861 103.18 29.4138C102.817 29.0415 102.525 28.6089 102.303 28.1158C102.091 27.6228 101.985 27.0946 101.985 26.5311V16.9173H99.202V15.1515H101.985V11.4388L103.846 11.137V15.1515H107.779V16.9173H103.846V26.6217C103.846 26.9336 103.902 27.2254 104.012 27.4971C104.133 27.7587 104.295 27.9901 104.497 28.1913C104.698 28.3925 104.935 28.5535 105.207 28.6743C105.48 28.7849 105.772 28.8403 106.085 28.8403H107.779V30.6061H106.085Z" fill="white"/>
<path d="M121.863 26.6821C121.863 27.3059 121.736 27.8794 121.484 28.4026C121.232 28.9157 120.889 29.3584 120.456 29.7307C120.022 30.103 119.518 30.3948 118.943 30.6061C118.378 30.8073 117.783 30.9079 117.158 30.9079H115.918C115.292 30.9079 114.692 30.7922 114.117 30.5608C113.553 30.3193 113.053 29.9923 112.62 29.5798C112.196 29.1673 111.853 28.6843 111.591 28.1309C111.339 27.5775 111.213 26.9889 111.213 26.3651V25.7463L113.074 25.4445V26.4708C113.074 26.8431 113.149 27.1952 113.301 27.5272C113.462 27.8492 113.674 28.1309 113.936 28.3724C114.198 28.6139 114.501 28.8051 114.844 28.9459C115.186 29.0868 115.544 29.1572 115.918 29.1572H117.158C117.531 29.1572 117.889 29.1019 118.232 28.9912C118.575 28.8805 118.877 28.7246 119.14 28.5233C119.412 28.312 119.624 28.0605 119.775 27.7687C119.936 27.4769 120.017 27.1449 120.017 26.7726C120.017 26.2192 119.896 25.7665 119.654 25.4143C119.412 25.0622 119.089 24.7704 118.686 24.539C118.292 24.2975 117.839 24.1013 117.324 23.9504C116.82 23.7894 116.301 23.6334 115.766 23.4825C115.232 23.3215 114.707 23.1404 114.193 22.9392C113.689 22.7379 113.235 22.4763 112.832 22.1544C112.438 21.8223 112.121 21.4098 111.879 20.9168C111.637 20.4238 111.516 19.81 111.516 19.0755C111.516 18.4517 111.637 17.8832 111.879 17.3701C112.121 16.8469 112.448 16.3992 112.862 16.0269C113.275 15.6546 113.754 15.3679 114.299 15.1666C114.854 14.9553 115.444 14.8497 116.069 14.8497H117.158C117.783 14.8497 118.373 14.9704 118.928 15.2119C119.483 15.4433 119.967 15.7653 120.38 16.1778C120.794 16.5903 121.116 17.0733 121.348 17.6267C121.59 18.1801 121.711 18.7687 121.711 19.3925V19.4528L119.851 19.7547V19.2868C119.851 18.9145 119.78 18.5674 119.639 18.2455C119.498 17.9134 119.306 17.6267 119.064 17.3852C118.822 17.1437 118.535 16.9525 118.202 16.8117C117.879 16.6708 117.531 16.6004 117.158 16.6004H116.069C115.696 16.6004 115.343 16.6557 115.01 16.7664C114.687 16.8771 114.405 17.0381 114.163 17.2494C113.921 17.4506 113.729 17.6971 113.588 17.9889C113.447 18.2807 113.376 18.6127 113.376 18.985C113.376 19.5182 113.497 19.9559 113.739 20.298C113.981 20.63 114.299 20.9118 114.692 21.1432C115.096 21.3746 115.549 21.5708 116.054 21.7318C116.568 21.8827 117.087 22.0437 117.612 22.2147C118.146 22.3757 118.666 22.5619 119.17 22.7732C119.684 22.9844 120.138 23.2561 120.531 23.5881C120.935 23.9202 121.257 24.3377 121.499 24.8408C121.741 25.3338 121.863 25.9476 121.863 26.6821Z" fill="white"/>
<path d="M134.191 25.5652H127.323L125.901 30.6061H123.874L130.228 8.96367H131.256L137.64 30.6061H135.628L134.191 25.5652ZM127.853 23.7089H133.677L130.818 13.7328L130.757 12.933L130.697 13.7328L127.853 23.7089Z" fill="white"/>
<path d="M150.15 26.3651C150.15 26.9889 150.029 27.5775 149.787 28.1309C149.555 28.6843 149.233 29.1673 148.819 29.5798C148.406 29.9923 147.922 30.3193 147.367 30.5608C146.812 30.7922 146.222 30.9079 145.597 30.9079H145.128C144.432 30.9079 143.787 30.7671 143.192 30.4853C142.597 30.2036 142.088 29.8112 141.664 29.3081V36.7939H139.803V15.1515H140.424L141.437 16.7211C141.861 16.1476 142.39 15.6949 143.025 15.3628C143.671 15.0207 144.372 14.8497 145.128 14.8497H145.597C146.222 14.8497 146.812 14.9704 147.367 15.2119C147.922 15.4433 148.406 15.7653 148.819 16.1778C149.233 16.5903 149.555 17.0733 149.787 17.6267C150.029 18.1801 150.15 18.7687 150.15 19.3925V26.3651ZM148.29 19.2868C148.29 18.9145 148.219 18.5674 148.078 18.2455C147.937 17.9134 147.745 17.6267 147.503 17.3852C147.261 17.1437 146.974 16.9525 146.641 16.8117C146.318 16.6708 145.97 16.6004 145.597 16.6004H144.357C143.983 16.6004 143.631 16.6708 143.298 16.8117C142.975 16.9525 142.693 17.1437 142.451 17.3852C142.209 17.6267 142.017 17.9134 141.876 18.2455C141.735 18.5674 141.664 18.9145 141.664 19.2868V26.4708C141.664 26.8431 141.735 27.1952 141.876 27.5272C142.017 27.8492 142.209 28.1309 142.451 28.3724C142.693 28.6139 142.975 28.8051 143.298 28.9459C143.631 29.0868 143.983 29.1572 144.357 29.1572H145.597C145.97 29.1572 146.318 29.0868 146.641 28.9459C146.974 28.8051 147.261 28.6139 147.503 28.3724C147.745 28.1309 147.937 27.8492 148.078 27.5272C148.219 27.1952 148.29 26.8431 148.29 26.4708V19.2868Z" fill="white"/>
<path d="M164.219 26.3651C164.219 26.9889 164.098 27.5775 163.856 28.1309C163.624 28.6843 163.301 29.1673 162.887 29.5798C162.474 29.9923 161.99 30.3193 161.435 30.5608C160.881 30.7922 160.291 30.9079 159.665 30.9079H159.196C158.501 30.9079 157.855 30.7671 157.26 30.4853C156.665 30.2036 156.156 29.8112 155.732 29.3081V36.7939H153.872V15.1515H154.492L155.505 16.7211C155.929 16.1476 156.458 15.6949 157.094 15.3628C157.739 15.0207 158.44 14.8497 159.196 14.8497H159.665C160.291 14.8497 160.881 14.9704 161.435 15.2119C161.99 15.4433 162.474 15.7653 162.887 16.1778C163.301 16.5903 163.624 17.0733 163.856 17.6267C164.098 18.1801 164.219 18.7687 164.219 19.3925V26.3651ZM162.358 19.2868C162.358 18.9145 162.287 18.5674 162.146 18.2455C162.005 17.9134 161.813 17.6267 161.571 17.3852C161.329 17.1437 161.042 16.9525 160.709 16.8117C160.386 16.6708 160.038 16.6004 159.665 16.6004H158.425C158.052 16.6004 157.699 16.6708 157.366 16.8117C157.043 16.9525 156.761 17.1437 156.519 17.3852C156.277 17.6267 156.085 17.9134 155.944 18.2455C155.803 18.5674 155.732 18.9145 155.732 19.2868V26.4708C155.732 26.8431 155.803 27.1952 155.944 27.5272C156.085 27.8492 156.277 28.1309 156.519 28.3724C156.761 28.6139 157.043 28.8051 157.366 28.9459C157.699 29.0868 158.052 29.1572 158.425 29.1572H159.665C160.038 29.1572 160.386 29.0868 160.709 28.9459C161.042 28.8051 161.329 28.6139 161.571 28.3724C161.813 28.1309 162.005 27.8492 162.146 27.5272C162.287 27.1952 162.358 26.8431 162.358 26.4708V19.2868Z" fill="white"/>
</g>
</svg>
