<svg width="32" height="32" viewBox="0 0 32 32" fill="none" xmlns="http://www.w3.org/2000/svg">
<path fill-rule="evenodd" clip-rule="evenodd" d="M15.9998 31C17.6498 31 18.9998 29.65 18.9998 28H12.9998C12.9998 29.65 14.3348 31 15.9998 31ZM24.9998 22V14.5C24.9998 9.895 22.5398 6.04 18.2498 5.02V4C18.2498 2.755 17.2448 1.75 15.9998 1.75C14.7548 1.75 13.7498 2.755 13.7498 4V5.02C9.44483 6.04 6.99983 9.88 6.99983 14.5V22L5.06483 23.935C4.11983 24.88 4.77983 26.5 6.11483 26.5H25.8698C27.2048 26.5 27.8798 24.88 26.9348 23.935L24.9998 22Z" fill="white"/>
</svg>
