<svg width="32" height="32" viewBox="0 0 32 32" fill="none" xmlns="http://www.w3.org/2000/svg">
<path fill-rule="evenodd" clip-rule="evenodd" d="M19.2394 5.31649C18.9214 5.20039 18.5914 5.10121 18.2498 5.02V4C18.2498 2.755 17.2448 1.75 15.9998 1.75C14.7548 1.75 13.7498 2.755 13.7498 4V5.02C9.44483 6.04 6.99983 9.88 6.99983 14.5V22L5.06483 23.935C4.11983 24.88 4.77983 26.5 6.11483 26.5H10.7498H12.9998H18.9998H21.2498H25.8698C27.2048 26.5 27.8798 24.88 26.9348 23.935L24.9998 22V14.5C24.9998 13.9896 24.9696 13.4885 24.91 12.9993C24.0699 12.987 23.2716 12.802 22.5491 12.4782C22.681 13.1106 22.7498 13.7866 22.7498 14.5V22V22.932L23.4088 23.591L24.0679 24.25H7.93181L8.59082 23.591L9.24983 22.932V22V14.5C9.24983 10.6647 11.2097 7.93414 14.2686 7.20939L15.9998 6.79919V6.79776L17.7294 7.20898C18.1911 7.31876 18.6282 7.47501 19.0375 7.67442C19.0127 7.45303 19 7.228 19 7C19 6.41555 19.0836 5.85061 19.2394 5.31649ZM16.7498 28H18.9998C18.9998 28.2587 18.9666 28.5101 18.9043 28.75C18.7513 29.3387 18.4229 29.8587 17.9788 30.25C17.4496 30.7163 16.7563 31 15.9998 31C15.2365 31 14.5426 30.7163 14.0148 30.25C13.5719 29.8587 13.246 29.3387 13.0944 28.75C13.0327 28.5101 12.9998 28.2587 12.9998 28H15.2498H16.7498Z" fill="white"/>
<circle cx="25" cy="7" r="5" fill="#D71A1A"/>
</svg>
