<svg width="32" height="32" viewBox="0 0 32 32" fill="none" xmlns="http://www.w3.org/2000/svg">
<path d="M23.8748 22V22.466L24.2043 22.7955L26.1393 24.7305C26.3719 24.9631 26.2078 25.375 25.8698 25.375H6.11483C5.80089 25.375 5.61072 24.9801 5.86033 24.7305L5.08107 23.9512L5.86033 24.7305L7.79533 22.7955L8.12483 22.466V22V14.5C8.12483 10.2723 10.3273 6.98707 14.0092 6.11469L14.8748 5.9096V5.02V4C14.8748 3.37632 15.3762 2.875 15.9998 2.875C16.6235 2.875 17.1248 3.37632 17.1248 4V5.02V5.90888L17.9896 6.11449C21.6581 6.98672 23.8748 10.2883 23.8748 14.5V22ZM17.4957 29.125C17.1522 29.5793 16.6079 29.875 15.9998 29.875C15.3844 29.875 14.8407 29.5799 14.4994 29.125H17.4957Z" stroke="white" stroke-width="2.25"/>
</svg>
