<svg width="32" height="32" viewBox="0 0 32 32" fill="none" xmlns="http://www.w3.org/2000/svg">
<path fill-rule="evenodd" clip-rule="evenodd" d="M19.2394 5.31649C18.9214 5.20039 18.5914 5.10121 18.2498 5.02V4C18.2498 2.755 17.2448 1.75 15.9998 1.75C14.7548 1.75 13.7498 2.755 13.7498 4V5.02C9.44483 6.04 6.99983 9.88 6.99983 14.5V22L5.06483 23.935C4.11983 24.88 4.77983 26.5 6.11483 26.5H25.8698C27.2048 26.5 27.8798 24.88 26.9348 23.935L24.9998 22V14.5C24.9998 13.9896 24.9696 13.4885 24.91 12.9993C21.6378 12.9512 19 10.2837 19 7C19 6.41555 19.0836 5.85061 19.2394 5.31649ZM18.9998 28C18.9998 29.65 17.6498 31 15.9998 31C14.3348 31 12.9998 29.65 12.9998 28H18.9998Z" fill="white"/>
<circle cx="25" cy="7" r="5" fill="#D71A1A"/>
</svg>
