<svg width="42" height="42" viewBox="0 0 42 42" fill="none" xmlns="http://www.w3.org/2000/svg">
<path d="M26.0768 8.5461C26.156 8.43299 26.3119 8.40551 26.425 8.4847L29.866 10.8941C29.9791 10.9733 30.0066 11.1292 29.9274 11.2423L16.5192 30.3912C16.44 30.5043 16.2841 30.5318 16.171 30.4526L12.73 28.0432C12.6169 27.964 12.5894 27.8081 12.6686 27.695L26.0768 8.5461Z" fill="black"/>
<path d="M11.9742 32.9351C11.9055 32.9654 11.8291 32.912 11.8341 32.837L12.1003 28.8031C12.1054 28.7253 12.1936 28.683 12.2574 28.7277L15.6909 31.1319C15.7547 31.1766 15.7452 31.2739 15.6738 31.3053L11.9742 32.9351Z" fill="black"/>
<path d="M27.9269 5.90314C28.2437 5.45073 28.8672 5.34078 29.3196 5.65756L31.5319 7.20661C31.9843 7.52339 32.0943 8.14693 31.7775 8.59934L30.6965 10.1431C30.6649 10.1883 30.6025 10.1993 30.5573 10.1676L26.8705 7.58615C26.8253 7.55447 26.8143 7.49212 26.846 7.44688L27.9269 5.90314Z" fill="black"/>
</svg>
