<svg width="42" height="42" viewBox="0 0 42 42" fill="none" xmlns="http://www.w3.org/2000/svg">
<path fill-rule="evenodd" clip-rule="evenodd" d="M12.4453 16.854C12.9976 16.854 13.4453 17.3017 13.4453 17.854V28.4781C13.4453 29.8588 14.5646 30.9781 15.9453 30.9781H25.9166C27.2973 30.9781 28.4166 29.8588 28.4166 28.4781V18.1372C28.4166 17.5849 28.8643 17.1372 29.4166 17.1372C29.9689 17.1372 30.4166 17.5849 30.4166 18.1372V28.4781C30.4166 30.9634 28.4019 32.9781 25.9166 32.9781H15.9453C13.46 32.9781 11.4453 30.9634 11.4453 28.4781V17.854C11.4453 17.3017 11.893 16.854 12.4453 16.854Z" fill="black"/>
<path fill-rule="evenodd" clip-rule="evenodd" d="M16.5737 18.2349C17.126 18.2349 17.5737 18.6826 17.5737 19.2349V28.1223C17.5737 28.6746 17.126 29.1223 16.5737 29.1223C16.0214 29.1223 15.5737 28.6746 15.5737 28.1223V19.2349C15.5737 18.6826 16.0214 18.2349 16.5737 18.2349Z" fill="black"/>
<path fill-rule="evenodd" clip-rule="evenodd" d="M20.9312 18.2349C21.4834 18.2349 21.9312 18.6826 21.9312 19.2349V28.1223C21.9312 28.6746 21.4834 29.1223 20.9312 29.1223C20.3789 29.1223 19.9312 28.6746 19.9312 28.1223V19.2349C19.9312 18.6826 20.3789 18.2349 20.9312 18.2349Z" fill="black"/>
<path fill-rule="evenodd" clip-rule="evenodd" d="M25.2886 18.2349C25.8409 18.2349 26.2886 18.6826 26.2886 19.2349V28.1223C26.2886 28.6746 25.8409 29.1223 25.2886 29.1223C24.7363 29.1223 24.2886 28.6746 24.2886 28.1223V19.2349C24.2886 18.6826 24.7363 18.2349 25.2886 18.2349Z" fill="black"/>
<path fill-rule="evenodd" clip-rule="evenodd" d="M13.5646 6.31923C13.8153 5.82714 14.4175 5.63148 14.9096 5.88221L30.9959 14.0786C31.488 14.3293 31.6836 14.9315 31.4329 15.4236C31.1821 15.9157 30.58 16.1113 30.0879 15.8606L14.0016 7.66423C13.5095 7.41349 13.3138 6.81132 13.5646 6.31923Z" fill="black"/>
<path fill-rule="evenodd" clip-rule="evenodd" d="M22.6553 8.49145C21.9851 8.14997 21.165 8.41644 20.8235 9.08664L19.7097 8.51915C20.3646 7.23384 21.9375 6.72279 23.2228 7.37769L24.8686 8.21629C26.1539 8.87119 26.665 10.444 26.0101 11.7293L24.8963 11.1619C25.2378 10.4917 24.9713 9.67153 24.3011 9.33005L22.6553 8.49145Z" fill="black"/>
</svg>
