<svg width="280" height="280" viewBox="0 0 280 280" fill="none" xmlns="http://www.w3.org/2000/svg">
<mask id="mask0" mask-type="alpha" maskUnits="userSpaceOnUse" x="0" y="0" width="280" height="280">
<path d="M0 0H280V280H0V0Z" fill="#E7E7E7"/>
</mask>
<g mask="url(#mask0)">
<path d="M0 0H280V280H0V0Z" fill="#DEDEDE"/>
</g>
<g opacity="0.35">
<path fill-rule="evenodd" clip-rule="evenodd" d="M204.465 164.516C210.649 172.099 206.646 179.681 198.948 179.681H77.7333C75.8196 179.681 74.0353 178.848 72.6486 177.51C72.3925 177.262 72.15 176.998 71.9227 176.718C71.8338 176.609 71.7471 176.497 71.6629 176.383C69.5363 173.503 68.8839 169.2 71.5 165.5L116.445 101.606C117.675 100.102 119.632 99 121.745 99C123.859 99 125.752 99.9688 127.014 101.505L143.988 120.948C144.461 121.449 145.029 122.017 145.345 122.317C146.228 123.152 147.459 123.687 148.815 123.687C150.235 123.687 151.213 123.052 152.443 122.117L158.343 116.839C159.637 115.736 160.773 114.935 162.382 114.935C164.022 114.935 165.473 115.837 166.42 117.006L204.465 164.516ZM210.194 152.472L210.195 152.472L213.832 156.931C218.959 163.219 221.371 171.667 217.992 179.63C214.616 187.584 206.832 191.681 198.948 191.681H77.7333C69.235 191.681 62.9163 186.147 60.0128 180.223C56.9259 173.924 56.7908 165.65 61.7829 158.589L65.5 153.5L106.868 94.3607L107.159 94.005C110.322 90.1408 115.519 87 121.745 87C127.545 87 132.715 89.6411 136.144 93.7161L149.321 108.809L150.45 107.799L150.592 107.678C152.121 106.374 156.157 102.935 162.382 102.935C168.502 102.935 173.124 106.215 175.747 109.455L175.767 109.48L210.194 152.472Z" fill="black"/>
</g>
</svg>
